<svg width="123" height="113" viewBox="0 0 123 113" fill="none" xmlns="http://www.w3.org/2000/svg">
<rect x="11" y="8" width="100" height="96" fill="white"/>
<path fill-rule="evenodd" clip-rule="evenodd" d="M14.29 0H108.59C116.45 0 122.88 6.43 122.88 14.29V98.59C122.88 106.45 116.45 112.88 108.59 112.88H14.29C6.43 112.88 0 106.45 0 98.59V14.29C0 6.43 6.43 0 14.29 0ZM61.36 24.87C53.67 29.32 48.49 37.64 48.49 47.17C48.49 61.39 60.02 72.92 74.24 72.92C80.99 72.92 87.14 70.32 91.73 66.07C94.01 63.96 96.62 65.5 95.74 68.01C90.93 81.83 77.79 91.74 62.33 91.74C42.79 91.74 26.95 75.9 26.95 56.36C26.95 37.64 41.56 22.26 60.05 21.13C63.47 20.93 64.35 23.14 61.36 24.87Z" fill="black"/>
</svg>
