<svg width="73" height="73" viewBox="0 0 73 73" fill="none" xmlns="http://www.w3.org/2000/svg">
<path fill-rule="evenodd" clip-rule="evenodd" d="M18.85 5.03003C17.75 5.67004 17.37 7.07996 18.01 8.18005L20.98 13.3101C21.62 14.41 23.03 14.79 24.13 14.15C25.23 13.51 25.61 12.1 24.97 11L22 5.87C21.36 4.77002 19.95 4.39001 18.85 5.03003ZM51.04 21.84C47.3 18.1 42.14 15.79 36.44 15.79C30.74 15.79 25.58 18.1 21.84 21.84C18.1 25.58 15.79 30.74 15.79 36.4399C15.79 42.14 18.11 47.3 21.84 51.04C25.58 54.78 30.74 57.09 36.44 57.09C42.14 57.09 47.3 54.78 51.04 51.04C54.78 47.3 57.09 42.14 57.09 36.4399C57.09 30.74 54.77 25.58 51.04 21.84ZM36.91 0.449951C35.64 0.449951 34.6 1.47998 34.6 2.76001V8.68005C34.6 9.95996 35.63 10.99 36.91 10.99C38.19 10.99 39.22 9.95996 39.22 8.68005V2.76001C39.22 1.47998 38.19 0.449951 36.91 0.449951ZM54.84 5.51001C53.74 4.88 52.33 5.26001 51.7 6.35999L48.74 11.49C48.11 12.59 48.49 14 49.59 14.63C50.69 15.26 52.1 14.88 52.73 13.78L55.69 8.65002C56.32 7.55005 55.94 6.14001 54.84 5.51001ZM67.84 18.85C67.2 17.75 65.79 17.37 64.69 18.01L59.56 20.97C58.46 21.61 58.08 23.02 58.72 24.12C59.36 25.22 60.77 25.6 61.87 24.96L67 22C68.1 21.36 68.48 19.95 67.84 18.85ZM72.43 36.91C72.43 35.64 71.4 34.6 70.12 34.6H64.2C62.92 34.6 61.89 35.63 61.89 36.91C61.89 38.1899 62.92 39.22 64.2 39.22H70.12C71.4 39.22 72.43 38.1899 72.43 36.91ZM67.37 54.84C68 53.74 67.62 52.33 66.52 51.7L61.39 48.74C60.29 48.11 58.88 48.49 58.25 49.59C57.62 50.6899 58 52.1 59.1 52.73L64.23 55.6899C65.33 56.3199 66.74 55.9399 67.37 54.84ZM54.03 67.84C55.13 67.2 55.51 65.79 54.87 64.6899L51.91 59.5601C51.27 58.46 49.86 58.08 48.76 58.72C47.66 59.36 47.28 60.77 47.92 61.87L50.88 67C51.52 68.1 52.93 68.48 54.03 67.84ZM35.97 72.4301C37.24 72.4301 38.28 71.4 38.28 70.12V64.2C38.28 62.92 37.25 61.89 35.97 61.89C34.69 61.89 33.66 62.92 33.66 64.2V70.12C33.66 71.4 34.69 72.4301 35.97 72.4301ZM18.04 67.37C19.14 68 20.55 67.62 21.18 66.52L24.14 61.39C24.77 60.29 24.39 58.88 23.29 58.25C22.19 57.62 20.78 58 20.15 59.1L17.19 64.23C16.56 65.33 16.94 66.74 18.04 67.37ZM5.04001 54.03C5.67999 55.13 7.09 55.51 8.19 54.87L13.31 51.9C14.41 51.26 14.79 49.85 14.15 48.75C13.51 47.65 12.1 47.27 11 47.91L5.88 50.88C4.78 51.52 4.39999 52.9301 5.04001 54.03ZM0.450012 35.97C0.450012 37.24 1.48001 38.28 2.76001 38.28H8.67999C9.95999 38.28 10.99 37.25 10.99 35.97C10.99 34.6899 9.95999 33.66 8.67999 33.66H2.76001C1.48001 33.66 0.450012 34.7 0.450012 35.97ZM5.51001 18.04C4.88 19.14 5.26001 20.55 6.35999 21.1801L11.49 24.14C12.59 24.77 14 24.39 14.63 23.29C15.26 22.1899 14.88 20.78 13.78 20.15L8.64999 17.1899C7.54999 16.5601 6.14001 16.9399 5.51001 18.04Z" fill="white"/>
</svg>
