<svg width="72" height="72" viewBox="0 0 72 72" fill="none" xmlns="http://www.w3.org/2000/svg">
<path fill-rule="evenodd" clip-rule="evenodd" d="M18.4 4.58C17.3 5.22 16.92 6.63 17.56 7.73L20.53 12.86C21.17 13.96 22.58 14.34 23.68 13.7C24.78 13.06 25.16 11.65 24.52 10.55L21.55 5.42C20.91 4.32 19.5 3.94 18.4 4.58ZM50.59 21.39C46.85 17.65 41.69 15.34 35.99 15.34C30.29 15.34 25.13 17.65 21.39 21.39C17.65 25.13 15.34 30.29 15.34 35.99C15.34 41.69 17.66 46.85 21.39 50.59C25.13 54.33 30.29 56.64 35.99 56.64C41.69 56.64 46.85 54.33 50.59 50.59C54.33 46.85 56.64 41.69 56.64 35.99C56.64 30.29 54.32 25.13 50.59 21.39ZM36.46 0C35.19 0 34.15 1.03 34.15 2.31V8.23C34.15 9.51 35.18 10.54 36.46 10.54C37.74 10.54 38.77 9.51 38.77 8.23V2.31C38.77 1.03 37.74 0 36.46 0ZM54.39 5.06C53.29 4.43 51.88 4.81 51.25 5.91L48.29 11.04C47.66 12.14 48.04 13.55 49.14 14.18C50.24 14.81 51.65 14.43 52.28 13.33L55.24 8.2C55.87 7.1 55.49 5.69 54.39 5.06ZM67.39 18.4C66.75 17.3 65.34 16.92 64.24 17.56L59.11 20.52C58.01 21.16 57.63 22.57 58.27 23.67C58.91 24.77 60.32 25.15 61.42 24.51L66.55 21.55C67.65 20.91 68.03 19.5 67.39 18.4ZM71.98 36.46C71.98 35.19 70.95 34.15 69.67 34.15H63.75C62.47 34.15 61.44 35.18 61.44 36.46C61.44 37.74 62.47 38.77 63.75 38.77H69.67C70.95 38.77 71.98 37.74 71.98 36.46ZM66.92 54.39C67.55 53.29 67.17 51.88 66.07 51.25L60.94 48.29C59.84 47.66 58.43 48.04 57.8 49.14C57.17 50.24 57.55 51.65 58.65 52.28L63.78 55.24C64.88 55.87 66.29 55.49 66.92 54.39ZM53.58 67.39C54.68 66.75 55.06 65.34 54.42 64.24L51.46 59.11C50.82 58.01 49.41 57.63 48.31 58.27C47.21 58.91 46.83 60.32 47.47 61.42L50.43 66.55C51.07 67.65 52.48 68.03 53.58 67.39ZM35.52 71.98C36.79 71.98 37.83 70.95 37.83 69.67V63.75C37.83 62.47 36.8 61.44 35.52 61.44C34.24 61.44 33.21 62.47 33.21 63.75V69.67C33.21 70.95 34.24 71.98 35.52 71.98ZM17.59 66.92C18.69 67.55 20.1 67.17 20.73 66.07L23.69 60.94C24.32 59.84 23.94 58.43 22.84 57.8C21.74 57.17 20.33 57.55 19.7 58.65L16.74 63.78C16.11 64.88 16.49 66.29 17.59 66.92ZM4.59 53.58C5.23 54.68 6.64 55.06 7.74 54.42L12.86 51.45C13.96 50.81 14.34 49.4 13.7 48.3C13.06 47.2 11.65 46.82 10.55 47.46L5.43 50.43C4.33 51.07 3.95 52.48 4.59 53.58ZM0 35.52C0 36.79 1.03 37.83 2.31 37.83H8.23C9.51 37.83 10.54 36.8 10.54 35.52C10.54 34.24 9.51 33.21 8.23 33.21H2.31C1.03 33.21 0 34.25 0 35.52ZM5.06 17.59C4.43 18.69 4.81 20.1 5.91 20.73L11.04 23.69C12.14 24.32 13.55 23.94 14.18 22.84C14.81 21.74 14.43 20.33 13.33 19.7L8.2 16.74C7.1 16.11 5.69 16.49 5.06 17.59Z" fill="black"/>
</svg>
