<svg width="123" height="113" viewBox="0 0 123 113" fill="none" xmlns="http://www.w3.org/2000/svg">
<g clip-path="url(#clip0)">
<rect x="11" y="8" width="100" height="96" fill="white"/>
<path fill-rule="evenodd" clip-rule="evenodd" d="M14.29 0H108.59C116.45 0 122.88 6.43 122.88 14.29V98.59C122.88 106.45 116.45 112.88 108.59 112.88H14.29C6.43 112.88 0 106.45 0 98.59V14.29C0 6.43 6.43 0 14.29 0ZM43.01 28.18C42.37 27.08 42.75 25.67 43.85 25.03C44.95 24.39 46.36 24.77 47 25.87L49.97 31C50.61 32.1 50.23 33.51 49.13 34.15C48.03 34.79 46.62 34.41 45.98 33.31L43.01 28.18ZM61.44 35.79C67.14 35.79 72.3 38.1 76.04 41.84C79.77 45.58 82.09 50.74 82.09 56.44C82.09 62.14 79.78 67.3 76.04 71.04C72.3 74.78 67.14 77.09 61.44 77.09C55.74 77.09 50.58 74.78 46.84 71.04C43.11 67.3 40.79 62.14 40.79 56.44C40.79 50.74 43.1 45.58 46.84 41.84C50.58 38.1 55.74 35.79 61.44 35.79ZM59.6 22.76C59.6 21.48 60.64 20.45 61.91 20.45C63.19 20.45 64.22 21.48 64.22 22.76V28.68C64.22 29.96 63.19 30.99 61.91 30.99C60.63 30.99 59.6 29.96 59.6 28.68V22.76V22.76ZM76.7 26.36C77.33 25.26 78.74 24.88 79.84 25.51C80.94 26.14 81.32 27.55 80.69 28.65L77.73 33.78C77.1 34.88 75.69 35.26 74.59 34.63C73.49 34 73.11 32.59 73.74 31.49L76.7 26.36ZM89.69 38.01C90.79 37.37 92.2 37.75 92.84 38.85C93.48 39.95 93.1 41.36 92 42L86.87 44.96C85.77 45.6 84.36 45.22 83.72 44.12C83.08 43.02 83.46 41.61 84.56 40.97L89.69 38.01ZM95.12 54.6C96.4 54.6 97.43 55.64 97.43 56.91C97.43 58.19 96.4 59.22 95.12 59.22H89.2C87.92 59.22 86.89 58.19 86.89 56.91C86.89 55.63 87.92 54.6 89.2 54.6H95.12ZM91.52 71.7C92.62 72.33 93 73.74 92.37 74.84C91.74 75.94 90.33 76.32 89.23 75.69L84.1 72.73C83 72.1 82.62 70.69 83.25 69.59C83.88 68.49 85.29 68.11 86.39 68.74L91.52 71.7ZM79.87 84.69C80.51 85.79 80.13 87.2 79.03 87.84C77.93 88.48 76.52 88.1 75.88 87L72.92 81.87C72.28 80.77 72.66 79.36 73.76 78.72C74.86 78.08 76.27 78.46 76.91 79.56L79.87 84.69ZM63.28 90.12C63.28 91.4 62.24 92.43 60.97 92.43C59.69 92.43 58.66 91.4 58.66 90.12V84.2C58.66 82.92 59.69 81.89 60.97 81.89C62.25 81.89 63.28 82.92 63.28 84.2V90.12ZM46.18 86.52C45.55 87.62 44.14 88 43.04 87.37C41.94 86.74 41.56 85.33 42.19 84.23L45.15 79.1C45.78 78 47.19 77.62 48.29 78.25C49.39 78.88 49.77 80.29 49.14 81.39L46.18 86.52ZM33.19 74.87C32.09 75.51 30.68 75.13 30.04 74.03C29.4 72.93 29.78 71.52 30.88 70.88L36 67.91C37.1 67.27 38.51 67.65 39.15 68.75C39.79 69.85 39.41 71.26 38.31 71.9L33.19 74.87ZM27.76 58.28C26.48 58.28 25.45 57.24 25.45 55.97C25.45 54.7 26.48 53.66 27.76 53.66H33.68C34.96 53.66 35.99 54.69 35.99 55.97C35.99 57.25 34.96 58.28 33.68 58.28H27.76ZM31.36 41.18C30.26 40.55 29.88 39.14 30.51 38.04C31.14 36.94 32.55 36.56 33.65 37.19L38.78 40.15C39.88 40.78 40.26 42.19 39.63 43.29C39 44.39 37.59 44.77 36.49 44.14L31.36 41.18Z" fill="black"/>
</g>
<defs>
<clipPath id="clip0">
<rect width="122.88" height="112.88" fill="white"/>
</clipPath>
</defs>
</svg>
