<svg width="131" height="22" viewBox="0 0 131 22" fill="none" xmlns="http://www.w3.org/2000/svg">
<path d="M7.512 18.288C6.184 18.288 4.896 18.112 3.648 17.76C2.416 17.392 1.424 16.92 0.672 16.344L1.992 13.416C2.712 13.944 3.568 14.368 4.56 14.688C5.552 15.008 6.544 15.168 7.536 15.168C8.64 15.168 9.456 15.008 9.984 14.688C10.512 14.352 10.776 13.912 10.776 13.368C10.776 12.968 10.616 12.64 10.296 12.384C9.992 12.112 9.592 11.896 9.096 11.736C8.616 11.576 7.96 11.4 7.128 11.208C5.848 10.904 4.8 10.6 3.984 10.296C3.168 9.992 2.464 9.504 1.872 8.832C1.296 8.16 1.008 7.264 1.008 6.144C1.008 5.168 1.272 4.288 1.8 3.504C2.328 2.704 3.12 2.072 4.176 1.608C5.248 1.144 6.552 0.912 8.088 0.912C9.16 0.912 10.208 1.04 11.232 1.296C12.256 1.552 13.152 1.92 13.92 2.4L12.72 5.352C11.168 4.472 9.616 4.032 8.064 4.032C6.976 4.032 6.168 4.208 5.64 4.56C5.128 4.912 4.872 5.376 4.872 5.952C4.872 6.528 5.168 6.96 5.76 7.248C6.368 7.52 7.288 7.792 8.52 8.064C9.8 8.368 10.848 8.672 11.664 8.976C12.48 9.28 13.176 9.76 13.752 10.416C14.344 11.072 14.64 11.96 14.64 13.08C14.64 14.04 14.368 14.92 13.824 15.72C13.296 16.504 12.496 17.128 11.424 17.592C10.352 18.056 9.048 18.288 7.512 18.288ZM35.4647 19.8C34.9207 20.472 34.2567 20.984 33.4727 21.336C32.7047 21.688 31.8567 21.864 30.9287 21.864C29.6807 21.864 28.5527 21.592 27.5447 21.048C26.5367 20.52 25.3847 19.576 24.0887 18.216C22.5687 18.024 21.2087 17.536 20.0087 16.752C18.8247 15.968 17.8967 14.96 17.2247 13.728C16.5687 12.48 16.2407 11.104 16.2407 9.6C16.2407 7.952 16.6327 6.472 17.4167 5.16C18.2167 3.832 19.3127 2.792 20.7047 2.04C22.1127 1.288 23.6887 0.912 25.4327 0.912C27.1767 0.912 28.7447 1.288 30.1367 2.04C31.5287 2.792 32.6247 3.832 33.4247 5.16C34.2247 6.472 34.6247 7.952 34.6247 9.6C34.6247 11.552 34.0727 13.264 32.9687 14.736C31.8807 16.208 30.4327 17.232 28.6247 17.808C29.0247 18.224 29.4087 18.52 29.7767 18.696C30.1607 18.888 30.5687 18.984 31.0007 18.984C32.0407 18.984 32.9527 18.568 33.7367 17.736L35.4647 19.8ZM20.1767 9.6C20.1767 10.64 20.4007 11.568 20.8487 12.384C21.3127 13.2 21.9447 13.84 22.7447 14.304C23.5447 14.752 24.4407 14.976 25.4327 14.976C26.4247 14.976 27.3207 14.752 28.1207 14.304C28.9207 13.84 29.5447 13.2 29.9927 12.384C30.4567 11.568 30.6887 10.64 30.6887 9.6C30.6887 8.56 30.4567 7.632 29.9927 6.816C29.5447 6 28.9207 5.368 28.1207 4.92C27.3207 4.456 26.4247 4.224 25.4327 4.224C24.4407 4.224 23.5447 4.456 22.7447 4.92C21.9447 5.368 21.3127 6 20.8487 6.816C20.4007 7.632 20.1767 8.56 20.1767 9.6ZM45.0107 18.288C42.6107 18.288 40.7387 17.624 39.3947 16.296C38.0667 14.968 37.4027 13.072 37.4027 10.608V1.2H41.2907V10.464C41.2907 13.472 42.5387 14.976 45.0347 14.976C46.2507 14.976 47.1787 14.616 47.8187 13.896C48.4587 13.16 48.7787 12.016 48.7787 10.464V1.2H52.6187V10.608C52.6187 13.072 51.9467 14.968 50.6027 16.296C49.2747 17.624 47.4107 18.288 45.0107 18.288ZM67.1732 14.4H59.3732L57.8852 18H53.9012L61.3892 1.2H65.2292L72.7412 18H68.6612L67.1732 14.4ZM65.9492 11.448L63.2852 5.016L60.6212 11.448H65.9492ZM74.4842 1.2H82.1162C83.9402 1.2 85.5482 1.552 86.9402 2.256C88.3482 2.944 89.4362 3.92 90.2042 5.184C90.9882 6.448 91.3802 7.92 91.3802 9.6C91.3802 11.28 90.9882 12.752 90.2042 14.016C89.4362 15.28 88.3482 16.264 86.9402 16.968C85.5482 17.656 83.9402 18 82.1162 18H74.4842V1.2ZM81.9242 14.808C83.6042 14.808 84.9402 14.344 85.9322 13.416C86.9402 12.472 87.4442 11.2 87.4442 9.6C87.4442 8 86.9402 6.736 85.9322 5.808C84.9402 4.864 83.6042 4.392 81.9242 4.392H78.3722V14.808H81.9242ZM107.253 18.288C105.861 18.288 104.621 17.944 103.533 17.256C102.445 16.568 101.589 15.576 100.965 14.28C100.357 12.968 100.053 11.408 100.053 9.6C100.053 7.792 100.357 6.24 100.965 4.944C101.589 3.632 102.445 2.632 103.533 1.944C104.621 1.256 105.861 0.912 107.253 0.912C108.645 0.912 109.885 1.256 110.973 1.944C112.061 2.632 112.909 3.632 113.517 4.944C114.141 6.24 114.453 7.792 114.453 9.6C114.453 11.408 114.141 12.968 113.517 14.28C112.909 15.576 112.061 16.568 110.973 17.256C109.885 17.944 108.645 18.288 107.253 18.288ZM107.253 15C108.277 15 109.077 14.56 109.653 13.68C110.245 12.8 110.541 11.44 110.541 9.6C110.541 7.76 110.245 6.4 109.653 5.52C109.077 4.64 108.277 4.2 107.253 4.2C106.245 4.2 105.445 4.64 104.853 5.52C104.277 6.4 103.989 7.76 103.989 9.6C103.989 11.44 104.277 12.8 104.853 13.68C105.445 14.56 106.245 15 107.253 15ZM124.43 7.464C125.502 7.464 126.478 7.68 127.358 8.112C128.238 8.544 128.934 9.16 129.446 9.96C129.958 10.744 130.214 11.656 130.214 12.696C130.214 13.816 129.934 14.8 129.374 15.648C128.814 16.496 128.046 17.152 127.07 17.616C126.11 18.064 125.038 18.288 123.854 18.288C121.502 18.288 119.662 17.568 118.334 16.128C117.006 14.688 116.342 12.632 116.342 9.96C116.342 8.056 116.702 6.424 117.422 5.064C118.142 3.704 119.142 2.672 120.422 1.968C121.718 1.264 123.214 0.912 124.91 0.912C125.806 0.912 126.662 1.016 127.478 1.224C128.31 1.416 129.014 1.696 129.59 2.064L128.15 4.92C127.318 4.36 126.27 4.08 125.006 4.08C123.582 4.08 122.454 4.496 121.622 5.328C120.79 6.16 120.342 7.368 120.278 8.952C121.27 7.96 122.654 7.464 124.43 7.464ZM123.638 15.384C124.47 15.384 125.142 15.16 125.654 14.712C126.182 14.264 126.446 13.656 126.446 12.888C126.446 12.12 126.182 11.512 125.654 11.064C125.142 10.6 124.454 10.368 123.59 10.368C122.742 10.368 122.046 10.608 121.502 11.088C120.958 11.552 120.686 12.152 120.686 12.888C120.686 13.624 120.95 14.224 121.478 14.688C122.006 15.152 122.726 15.384 123.638 15.384Z" fill="white"/>
</svg>
